<svg width="16" height="16" viewBox="0 0 16 16" fill="none" xmlns="http://www.w3.org/2000/svg">
<path fill-rule="evenodd" clip-rule="evenodd" d="M4.66668 0.833313C4.94282 0.833313 5.16668 1.05717 5.16668 1.33331V2.50447C5.66915 2.24618 6.21542 2.05331 6.79628 1.93879C10.1377 1.28006 13.3805 3.45482 14.0392 6.79626C14.698 10.1377 12.5232 13.3805 9.18178 14.0392C5.84034 14.698 2.59755 12.5232 1.93881 9.18176C1.78633 8.40827 1.7857 7.63892 1.91678 6.90535C1.96536 6.63351 2.2251 6.45252 2.49694 6.5011C2.76878 6.54967 2.94976 6.80942 2.90119 7.08126C2.7916 7.69454 2.79185 8.33864 2.91993 8.98834C3.47184 11.7879 6.18877 13.61 8.98836 13.0581C11.7879 12.5062 13.61 9.78927 13.0581 6.98968C12.5062 4.19009 9.78929 2.368 6.9897 2.91991C6.52592 3.01134 6.08955 3.16194 5.68657 3.36215L6.59059 3.90457C6.82739 4.04664 6.90417 4.35377 6.76209 4.59056C6.62002 4.82735 6.31289 4.90413 6.0761 4.76206L4.40943 3.76206C4.25883 3.6717 4.16668 3.50894 4.16668 3.33331V1.33331C4.16668 1.05717 4.39054 0.833313 4.66668 0.833313ZM8.50001 5.99997C8.50001 5.72383 8.27616 5.49997 8.00001 5.49997C7.72387 5.49997 7.50001 5.72383 7.50001 5.99997V8.66664C7.50001 8.94278 7.72387 9.16664 8.00001 9.16664H10.3333C10.6095 9.16664 10.8333 8.94278 10.8333 8.66664C10.8333 8.3905 10.6095 8.16664 10.3333 8.16664H8.50001V5.99997Z" fill="#666666"/>
</svg>
