<svg width="24" height="24" viewBox="0 0 24 24" fill="none" xmlns="http://www.w3.org/2000/svg">
<path d="M7.65321 4.66658C8.4621 4.18786 9.36478 3.83618 10.3395 3.64403C14.9453 2.73604 19.415 5.73369 20.323 10.3395C21.231 14.9452 18.2334 19.415 13.6276 20.323C9.02183 21.231 4.55205 18.2333 3.64406 13.6276C3.43363 12.5602 3.43297 11.5001 3.61348 10.49" stroke="black" stroke-width="1.5" stroke-linecap="round" stroke-linejoin="round"/>
<path d="M7.75 2C7.75 1.58579 7.41421 1.25 7 1.25C6.58579 1.25 6.25 1.58579 6.25 2H7.75ZM7 5H6.25C6.25 5.26345 6.38822 5.50758 6.61413 5.64312L7 5ZM9.11413 7.14312C9.46931 7.35623 9.93001 7.24106 10.1431 6.88587C10.3562 6.53069 10.2411 6.06999 9.88587 5.85688L9.11413 7.14312ZM6.25 2V5H7.75V2H6.25ZM6.61413 5.64312L9.11413 7.14312L9.88587 5.85688L7.38587 4.35688L6.61413 5.64312Z" fill="black"/>
<path d="M12.75 9C12.75 8.58579 12.4142 8.25 12 8.25C11.5858 8.25 11.25 8.58579 11.25 9H12.75ZM12 13H11.25C11.25 13.4142 11.5858 13.75 12 13.75V13ZM15.5 13.75C15.9142 13.75 16.25 13.4142 16.25 13C16.25 12.5858 15.9142 12.25 15.5 12.25V13.75ZM11.25 9V13H12.75V9H11.25ZM12 13.75H15.5V12.25H12V13.75Z" fill="black"/>
</svg>
