<svg width="16" height="16" viewBox="0 0 16 16" fill="none" xmlns="http://www.w3.org/2000/svg">
<path d="M5.10206 3.11105C5.64132 2.7919 6.24311 2.55746 6.89291 2.42935C9.96343 1.82403 12.9433 3.82246 13.5486 6.89297C14.1539 9.96349 12.1555 12.9433 9.08499 13.5487C6.01447 14.154 3.03462 12.1556 2.42929 9.08505C2.28901 8.37346 2.28856 7.66673 2.4089 6.9933" stroke="#888888" stroke-linecap="round" stroke-linejoin="round"/>
<path d="M5.1665 1.3335C5.1665 1.05735 4.94265 0.833496 4.6665 0.833496C4.39036 0.833496 4.1665 1.05735 4.1665 1.3335H5.1665ZM4.6665 3.3335H4.1665C4.1665 3.50913 4.25865 3.67188 4.40926 3.76224L4.6665 3.3335ZM6.07592 4.76224C6.31271 4.90432 6.61984 4.82753 6.76192 4.59074C6.90399 4.35395 6.82721 4.04682 6.59042 3.90475L6.07592 4.76224ZM4.1665 1.3335V3.3335H5.1665V1.3335H4.1665ZM4.40926 3.76224L6.07592 4.76224L6.59042 3.90475L4.92375 2.90475L4.40926 3.76224Z" fill="#888888"/>
<path d="M8.5 6C8.5 5.72386 8.27614 5.5 8 5.5C7.72386 5.5 7.5 5.72386 7.5 6H8.5ZM8 8.66667H7.5C7.5 8.94281 7.72386 9.16667 8 9.16667V8.66667ZM10.3333 9.16667C10.6095 9.16667 10.8333 8.94281 10.8333 8.66667C10.8333 8.39052 10.6095 8.16667 10.3333 8.16667V9.16667ZM7.5 6V8.66667H8.5V6H7.5ZM8 9.16667H10.3333V8.16667H8V9.16667Z" fill="#888888"/>
</svg>
